<svg width="32" height="32" viewBox="0 0 32 32" fill="none" xmlns="http://www.w3.org/2000/svg">
<circle cx="15.9565" cy="16.0869" r="14.9327" stroke="#FFF1EA" stroke-width="0.569388"/>
<path d="M19.3386 12.7054H13.8696C13.7462 12.7054 13.6449 12.6658 13.5657 12.5867C13.4865 12.5075 13.4469 12.4062 13.4469 12.2827C13.4469 12.1593 13.4865 12.058 13.5657 11.9788C13.6449 11.8996 13.7462 11.86 13.8696 11.86H19.7613C19.8847 11.86 19.986 11.8996 20.0652 11.9788C20.1444 12.058 20.184 12.1593 20.184 12.2827V18.2006C20.184 18.324 20.1444 18.4253 20.0652 18.5045C19.986 18.5837 19.8847 18.6233 19.7613 18.6233C19.6379 18.6233 19.5365 18.5837 19.4574 18.5045C19.3782 18.4253 19.3386 18.324 19.3386 18.2006V12.7054ZM19.4574 11.9788C19.5456 11.8996 19.6469 11.86 19.7613 11.86C19.8757 11.86 19.9747 11.9019 20.0584 11.9856C20.1421 12.0693 20.184 12.1683 20.184 12.2827C20.184 12.3971 20.1444 12.4985 20.0652 12.5867L12.8792 19.7727C12.791 19.8518 12.6897 19.8914 12.5753 19.8914C12.4609 19.8914 12.3618 19.8496 12.2781 19.7659C12.1944 19.6822 12.1526 19.5831 12.1526 19.4687C12.1526 19.3543 12.1922 19.253 12.2714 19.1648L19.4574 11.9788Z" fill="white"/>
</svg>
