<svg width="14" height="14" viewBox="0 0 14 14" fill="none" xmlns="http://www.w3.org/2000/svg">
<path d="M10.3333 1.99996H13C13.1768 1.99996 13.3464 2.0702 13.4714 2.19522C13.5964 2.32025 13.6667 2.48981 13.6667 2.66663V13.3333C13.6667 13.5101 13.5964 13.6797 13.4714 13.8047C13.3464 13.9297 13.1768 14 13 14H1.00001C0.823199 14 0.65363 13.9297 0.528606 13.8047C0.403581 13.6797 0.333344 13.5101 0.333344 13.3333V2.66663C0.333344 2.48981 0.403581 2.32025 0.528606 2.19522C0.65363 2.0702 0.823199 1.99996 1.00001 1.99996H3.66668V0.666626H5.00001V1.99996H9.00001V0.666626H10.3333V1.99996ZM12.3333 7.33329H1.66668V12.6666H12.3333V7.33329ZM9.00001 3.33329H5.00001V4.66663H3.66668V3.33329H1.66668V5.99996H12.3333V3.33329H10.3333V4.66663H9.00001V3.33329ZM3.00001 8.66663H4.33334V9.99996H3.00001V8.66663ZM6.33334 8.66663H7.66668V9.99996H6.33334V8.66663ZM9.66668 8.66663H11V9.99996H9.66668V8.66663Z" fill="#F8F6F4"/>
</svg>
