<svg width="15" height="15" viewBox="0 0 15 15" fill="none" xmlns="http://www.w3.org/2000/svg">
<path d="M10.0416 14.625V9.11025H11.8886L12.1649 6.96642H10.0416V5.59842C10.0416 4.97775 10.2142 4.55421 11.1041 4.55421H12.2393V2.63679C11.6897 2.57848 11.1374 2.5502 10.5847 2.55208C8.94835 2.55208 7.82814 3.55117 7.82814 5.38625V6.96642H5.97722V9.11025H7.82814V14.625H1.01506C0.805092 14.625 0.603729 14.5416 0.455262 14.3931C0.306796 14.2447 0.223389 14.0433 0.223389 13.8333V1.16667C0.223389 0.956704 0.306796 0.75534 0.455262 0.606874C0.603729 0.458407 0.805092 0.375 1.01506 0.375H13.6817C13.8917 0.375 14.0931 0.458407 14.2415 0.606874C14.39 0.75534 14.4734 0.956704 14.4734 1.16667V13.8333C14.4734 14.0433 14.39 14.2447 14.2415 14.3931C14.0931 14.5416 13.8917 14.625 13.6817 14.625H10.0416Z" fill="black" fill-opacity="0.5"/>
</svg>
