<svg width="146" height="54" viewBox="0 0 146 54" fill="none" xmlns="http://www.w3.org/2000/svg">
<path d="M2.88567 31.8376V4.91685C2.89787 4.52682 2.83017 4.13843 2.68673 3.77558C2.5433 3.41273 2.32717 3.08311 2.05166 2.80702C1.50811 2.25665 0.772919 1.93808 0 1.918H2.88359L3.2714 1.97435C5.30499 2.23312 7.00568 3.19518 8.37345 4.8605L24.9515 25.4517V4.68938C24.9123 3.93663 24.5959 3.2251 24.0634 2.69211C23.5309 2.15911 22.82 1.84244 22.0679 1.80322H30.4976C29.7195 1.82471 28.9817 2.15418 28.446 2.71937C28.1746 2.9937 27.9609 3.31975 27.8177 3.6782C27.6744 4.03666 27.6045 4.42025 27.612 4.80624L27.5661 35.3853H27.245C26.8849 35.3968 26.5278 35.3163 26.2075 35.1512C25.8871 34.9862 25.6142 34.7421 25.4143 34.442L5.54825 9.74171V31.9461C5.56188 32.7073 5.86979 33.4337 6.40728 33.9724C6.9501 34.5116 7.66887 34.8368 8.43183 34.8886H0.00208388C0.777359 34.8309 1.50582 34.4952 2.05375 33.9432C2.32856 33.6676 2.54413 33.3386 2.6872 32.9765C2.83027 32.6144 2.89781 32.2268 2.88567 31.8376Z" fill="#15594D"/>
<path d="M73.6056 32.4448V4.19061C73.4633 3.53634 73.1089 2.9475 72.5976 2.51573C72.0862 2.08395 71.4466 1.83346 70.7783 1.80322H90.4213C92.3076 1.80322 93.6204 2.3952 94.3599 3.57916C94.5233 3.86527 94.6137 4.18727 94.6232 4.51668C94.6326 4.84609 94.5608 5.17276 94.4141 5.46779C94.26 5.78937 94.0254 6.06559 93.7332 6.26964C93.4409 6.47368 93.1009 6.5986 92.7461 6.63226H92.5814L92.4688 6.46531C91.5458 5.13388 89.882 4.46817 87.4773 4.46817H78.7202V16.5136H87.0912C88.5631 16.5136 89.7562 17.7068 89.7562 19.1786H78.7098V31.8376C78.6923 32.6239 78.9852 33.3854 79.525 33.9569C80.0648 34.5284 80.808 34.8639 81.5933 34.8907H70.7783C71.457 34.8618 72.1045 34.5968 72.609 34.1415C73.1148 33.6979 73.4643 33.1029 73.6056 32.4448Z" fill="#15594D"/>
<path d="M109.845 1.80314C109.066 1.8243 108.328 2.15378 107.791 2.71928C107.52 2.99361 107.306 3.31966 107.163 3.67812C107.02 4.03657 106.95 4.42016 106.957 4.80616V31.8375C106.94 32.6241 107.233 33.3859 107.773 33.9575C108.314 34.5291 109.057 34.8644 109.843 34.8906H106.57C105.349 34.8906 104.407 34.7236 103.742 34.3897C103.047 33.9485 102.52 33.2874 102.243 32.5115C102.118 31.9807 102.025 31.4427 101.966 30.9005C101.886 30.1449 101.849 29.3855 101.855 28.6258V4.7999C101.863 4.4139 101.793 4.03031 101.65 3.67186C101.506 3.3134 101.293 2.98735 101.021 2.71302C100.486 2.14783 99.7478 1.81836 98.9697 1.79688L109.845 1.80314Z" fill="#15594D"/>
<path d="M115.164 30.5039V30.1158C115.173 29.5738 115.392 29.0565 115.774 28.6732C116.157 28.29 116.674 28.0709 117.216 28.0623H117.493L117.547 28.2835C118.287 30.3926 119.378 31.8534 120.821 32.6659C122.264 33.4784 124.075 33.8853 126.256 33.8867C126.974 33.8844 127.689 33.8103 128.391 33.6655C129.073 33.5304 129.728 33.2866 130.333 32.9435C130.901 32.6146 131.385 32.1581 131.746 31.61C132.132 30.9963 132.325 30.2811 132.301 29.5565C132.313 28.8018 132.162 28.0535 131.857 27.3632C131.566 26.7228 131.162 26.1402 130.664 25.6436C130.146 25.1279 129.58 24.6631 128.973 24.2558C128.343 23.8301 127.718 23.4322 127.097 23.0621L121.05 19.5144C120.208 19.0259 119.402 18.4785 118.638 17.8762C117.936 17.3229 117.312 16.6787 116.78 15.9605C116.26 15.2526 115.857 14.4655 115.587 13.6294C115.297 12.6953 115.157 11.7213 115.17 10.7433C115.148 9.44308 115.413 8.15401 115.946 6.9681C116.445 5.88115 117.174 4.91512 118.081 4.13621C119.011 3.346 120.084 2.74298 121.242 2.36028C122.463 1.95024 123.744 1.74368 125.032 1.74882C126.261 1.73278 127.488 1.84468 128.694 2.08273C129.597 2.26343 130.48 2.53326 131.329 2.88826C131.962 3.15276 132.559 3.49786 133.104 3.915C133.5 4.22755 133.879 4.56123 134.24 4.91461C134.715 5.41318 135.134 5.96175 135.491 6.55072C135.802 7.08069 135.965 7.6848 135.962 8.29953C135.946 8.78019 135.747 9.23664 135.408 9.57672C135.068 9.9168 134.612 10.1152 134.132 10.1318H133.521L133.41 9.9106C132.671 7.9865 131.616 6.57994 130.245 5.69093C128.874 4.80192 127.137 4.35811 125.032 4.3595C124.358 4.36132 123.689 4.49311 123.064 4.74767C122.434 4.99571 121.853 5.3524 121.346 5.80154C120.844 6.24851 120.43 6.78491 120.124 7.38339C119.81 7.99298 119.649 8.66966 119.653 9.35549C119.625 10.5033 120.043 11.6172 120.819 12.4629C121.632 13.2781 123 14.2777 124.922 15.4617L130.969 19.0699C131.798 19.5377 132.603 20.0468 133.381 20.5954C134.117 21.1136 134.787 21.7198 135.376 22.4006C135.947 23.0622 136.406 23.8121 136.736 24.621C137.086 25.5239 137.256 26.4867 137.236 27.455C137.236 29.009 136.958 30.3509 136.402 31.4806C135.868 32.5839 135.091 33.5516 134.129 34.3104C133.135 35.0878 131.994 35.6557 130.775 35.9799C129.446 36.336 128.076 36.5108 126.7 36.4995C125.598 36.4849 124.497 36.4111 123.402 36.2783C122.108 36.1319 120.835 35.8321 119.611 35.3851C118.461 34.9812 117.399 34.3591 116.484 33.5528C115.604 32.7793 115.164 31.763 115.164 30.5039Z" fill="#15594D"/>
<path d="M33.2773 34.9677C33.4984 34.9093 33.6485 34.8822 33.7903 34.8321C34.247 34.686 34.6666 34.4424 35.0201 34.1181C35.3736 33.7938 35.6526 33.3966 35.8378 32.9539C38.7901 25.9392 41.7412 18.9245 44.6908 11.9098C46.0398 8.70021 47.4013 5.49268 48.7274 2.2768C48.8671 1.94082 49.038 1.82813 49.3967 1.87404C49.8762 1.91278 50.3345 2.08911 50.7165 2.38188C51.0985 2.67465 51.3881 3.07146 51.5505 3.52475C53.6174 8.60699 55.6872 13.6851 57.7597 18.759C59.2192 22.3526 60.6787 25.9566 62.1862 29.5293C62.647 30.6166 63.3184 31.6162 63.8771 32.6597C64.3459 33.5459 64.9718 34.3393 65.7245 35.0011C65.933 35.1743 66.1415 35.3183 66.3917 35.502C66.3233 35.5203 66.2536 35.5328 66.1832 35.5395C61.9652 35.5395 57.8222 35.0324 53.8357 33.5779C50.9625 32.5344 48.3562 31.0298 46.167 28.8678C44.6941 27.4212 43.5313 25.6893 42.7496 23.7779C42.7329 23.7383 42.7142 23.6986 42.6829 23.6297C42.6349 23.7132 42.5911 23.7737 42.562 23.8384C41.2623 26.9242 39.964 30.01 38.6671 33.0958C38.4795 33.5445 38.5316 33.7761 38.8756 34.1121C39.3276 34.5322 39.882 34.8258 40.4832 34.9636L33.2773 34.9677ZM48.4188 9.92521C48.3541 10.0504 48.325 10.0942 48.3041 10.1443C47.0531 13.1578 45.7986 16.1726 44.5406 19.1889C44.4846 19.3438 44.4688 19.5103 44.4948 19.673C44.9639 23.1143 46.6173 25.8773 49.3049 28.0393C51.5818 29.8716 54.2047 30.9776 57.0028 31.7226C57.2113 31.7769 57.4198 31.8228 57.6137 31.8666C54.4382 24.6064 51.5109 17.2668 48.4188 9.92521Z" fill="#15594D"/>
<path d="M37.6856 47.0879C37.5386 47.0946 37.4151 47.1514 37.3149 47.2582C37.2147 47.3584 37.1646 47.482 37.1646 47.629V52.5087C37.1646 52.6623 37.2147 52.7893 37.3149 52.8895C37.4151 52.9963 37.5386 53.0531 37.6856 53.0598H37.0944C36.874 53.0598 36.7036 53.0297 36.5834 52.9696C36.4632 52.8961 36.373 52.7826 36.3129 52.6289C36.2928 52.5488 36.2761 52.4519 36.2628 52.3384C36.2494 52.2248 36.2427 52.0879 36.2427 51.9275V47.629C36.2427 47.482 36.1926 47.3584 36.0924 47.2582C35.9922 47.1514 35.8686 47.0946 35.7217 47.0879H37.6856Z" fill="#15594D"/>
<path d="M42.1604 52.5087V47.649C42.1604 47.4954 42.1103 47.3685 42.0101 47.2683C41.9099 47.1681 41.7863 47.1146 41.6393 47.1079H42.1604L42.2305 47.118C42.5979 47.1647 42.9052 47.3384 43.1524 47.639L46.1483 51.3564V47.6089C46.1417 47.4686 46.0882 47.3484 45.988 47.2482C45.8878 47.148 45.7676 47.0946 45.6273 47.0879H47.1503C47.0034 47.0946 46.8798 47.1514 46.7796 47.2582C46.6794 47.3584 46.6293 47.482 46.6293 47.629L46.6193 53.15H46.5592C46.4189 53.15 46.3087 53.0932 46.2285 52.9796L42.6413 48.5207V52.5287C42.648 52.6757 42.6981 52.7959 42.7916 52.8895C42.8918 52.9897 43.0154 53.0464 43.1624 53.0598H41.6393C41.7863 53.0464 41.9099 52.9897 42.0101 52.8895C42.1103 52.7893 42.1604 52.6623 42.1604 52.5087Z" fill="#15594D"/>
<path d="M51.109 47.4085C51.2426 47.1948 51.4764 47.0879 51.8104 47.0879H55.9887V47.5688H54.0048V52.5287C54.0048 52.669 54.0549 52.7893 54.1551 52.8895C54.2553 52.9963 54.3789 53.0531 54.5258 53.0598H52.5619C52.7022 53.0531 52.8191 52.9997 52.9126 52.8995C53.0128 52.806 53.0696 52.6891 53.0829 52.5488V47.5688H52.3415C51.9073 47.5688 51.61 47.6891 51.4497 47.9296L51.4296 47.9596H51.3896C51.2626 47.9463 51.1658 47.8761 51.099 47.7492C51.0389 47.6356 51.0422 47.5221 51.109 47.4085Z" fill="#15594D"/>
<path d="M59.8448 47.0879H63.4019C63.7492 47.0879 63.983 47.1948 64.1033 47.4085C64.1367 47.462 64.1534 47.5187 64.1534 47.5789C64.1601 47.639 64.15 47.6958 64.1233 47.7492C64.0632 47.8694 63.963 47.9396 63.8227 47.9596H63.7826L63.7626 47.9296C63.6023 47.6891 63.305 47.5688 62.8708 47.5688H61.2877V49.7432H63.6724V50.2241H61.2877V52.5788H62.7706C63.1781 52.5788 63.4854 52.5087 63.6925 52.3684C63.7325 52.3484 63.7726 52.3183 63.8127 52.2782L63.8327 52.2682H63.8528C63.9396 52.2682 64.0098 52.315 64.0632 52.4085C64.13 52.5287 64.1267 52.6423 64.0532 52.7492C63.9129 52.9563 63.7225 53.0598 63.482 53.0598H59.8448C59.9851 53.0531 60.1053 52.9997 60.2055 52.8995C60.3057 52.7993 60.3591 52.6757 60.3658 52.5287V47.5789C60.3525 47.4453 60.2957 47.3317 60.1955 47.2382C60.0953 47.1447 59.9784 47.0946 59.8448 47.0879Z" fill="#15594D"/>
<path d="M68.6319 52.5187V47.5989C68.6252 47.4653 68.5718 47.3484 68.4716 47.2482C68.3714 47.148 68.2512 47.0946 68.1109 47.0879H70.195C70.6359 47.1146 71.0033 47.1881 71.2972 47.3083C71.5912 47.4219 71.825 47.5588 71.9986 47.7191C72.1723 47.8795 72.2926 48.0498 72.3594 48.2302C72.4328 48.4105 72.4696 48.5809 72.4696 48.7412C72.4696 49.5361 72.0087 50.0538 71.0868 50.2943L72.7301 52.6289L72.8904 52.8293C72.9439 52.9028 73.004 52.9629 73.0708 53.0097C73.1442 53.0565 73.2277 53.0832 73.3213 53.0899H72.7301C72.4295 53.0832 72.1623 52.9863 71.9285 52.7993C71.8884 52.7726 71.8316 52.7124 71.7582 52.6189C71.6847 52.5321 71.5978 52.4285 71.4976 52.3083C71.4041 52.1881 71.3039 52.0578 71.197 51.9175C71.0902 51.7706 70.9833 51.6269 70.8764 51.4867C70.6292 51.146 70.362 50.7686 70.0748 50.3544H69.5538V52.5087C69.5538 52.6623 69.6039 52.7893 69.7041 52.8895C69.8043 52.9897 69.9278 53.0464 70.0748 53.0598H68.1109C68.2578 53.0464 68.3814 52.9897 68.4816 52.8895C68.5818 52.7893 68.6319 52.6657 68.6319 52.5187ZM69.5538 47.5989V49.8434C69.7809 49.8968 69.9813 49.9235 70.155 49.9235C70.342 49.9235 70.5324 49.8801 70.7261 49.7933C70.9532 49.7064 71.1336 49.5695 71.2672 49.3825C71.4008 49.1954 71.4676 48.9817 71.4676 48.7412C71.4676 48.494 71.4008 48.2769 71.2672 48.0899C71.1403 47.8962 70.9599 47.7525 70.7261 47.659C70.519 47.5655 70.3286 47.5187 70.155 47.5187C69.9813 47.5187 69.7809 47.5455 69.5538 47.5989Z" fill="#15594D"/>
<path d="M82.4712 53.0598C82.6182 53.0531 82.7384 52.9997 82.832 52.8995C82.9322 52.7993 82.9856 52.6757 82.9923 52.5287V47.6189C82.9856 47.472 82.9322 47.3517 82.832 47.2582C82.7384 47.158 82.6182 47.1013 82.4712 47.0879H83.0624C83.2695 47.0879 83.4298 47.1146 83.5434 47.1681C83.6569 47.2215 83.7404 47.2983 83.7939 47.3985C83.854 47.4987 83.8874 47.6189 83.8941 47.7592C83.9074 47.8995 83.9141 48.0531 83.9141 48.2201V52.5788H85.7277C85.8279 52.5788 85.9315 52.5755 86.0384 52.5688C86.1452 52.5621 86.2454 52.5488 86.339 52.5287C86.4392 52.5087 86.526 52.4786 86.5995 52.4386C86.6796 52.3918 86.7397 52.335 86.7798 52.2682C86.9201 52.3684 86.9969 52.4686 87.0103 52.5688C87.0236 52.6623 87.0003 52.7458 86.9401 52.8193C86.8867 52.8995 86.8099 52.9596 86.7097 52.9997C86.6162 53.0464 86.5227 53.0665 86.4291 53.0598H82.4712Z" fill="#15594D"/>
<path d="M90.7271 47.0879H91.3183C91.5387 47.0879 91.709 47.118 91.8293 47.1781C91.9094 47.2248 91.9729 47.2916 92.0197 47.3785C92.0664 47.4586 92.0998 47.5455 92.1199 47.639C92.1466 47.7325 92.1599 47.8294 92.1599 47.9296C92.1666 48.0298 92.1699 48.1233 92.1699 48.2101V50.7352C92.1699 51.0024 92.19 51.2529 92.2301 51.4867C92.2768 51.7205 92.3536 51.9275 92.4605 52.1079C92.5741 52.2816 92.7277 52.4185 92.9214 52.5187C93.1152 52.6189 93.3657 52.669 93.6729 52.669C94.047 52.669 94.3476 52.6156 94.5747 52.5087C94.8019 52.3951 94.9755 52.2415 95.0958 52.0478C95.2227 51.8474 95.3062 51.6136 95.3463 51.3464C95.3864 51.0792 95.4064 50.7886 95.4064 50.4746V47.5989C95.393 47.4586 95.3363 47.3417 95.2361 47.2482C95.1425 47.148 95.0256 47.0946 94.8854 47.0879H96.3984C96.2648 47.0946 96.1479 47.1447 96.0477 47.2382C95.9542 47.3317 95.9007 47.4453 95.8874 47.5789V50.4746C95.8874 50.9222 95.8506 51.313 95.7771 51.647C95.7103 51.981 95.5868 52.2615 95.4064 52.4887C95.2327 52.7091 94.9956 52.8728 94.695 52.9796C94.3944 53.0932 94.017 53.15 93.5627 53.15C93.0951 53.15 92.711 53.0865 92.4104 52.9596C92.1165 52.8327 91.8827 52.6523 91.709 52.4185C91.5354 52.1847 91.4151 51.9042 91.3483 51.5768C91.2815 51.2495 91.2481 50.8821 91.2481 50.4746V47.6089C91.2414 47.4686 91.188 47.3484 91.0878 47.2482C90.9876 47.148 90.8674 47.0946 90.7271 47.0879Z" fill="#15594D"/>
<path d="M100.303 53.0598C100.35 53.0598 100.397 53.0464 100.443 53.0197C100.497 52.9997 100.547 52.973 100.594 52.9396C100.647 52.9128 100.691 52.8828 100.724 52.8494C100.764 52.8227 100.794 52.7993 100.814 52.7792C100.828 52.7726 100.868 52.7258 100.934 52.639C101.001 52.5588 101.085 52.4553 101.185 52.3283C101.285 52.2014 101.395 52.0578 101.516 51.8975C101.636 51.7372 101.759 51.5768 101.886 51.4165C102.18 51.0291 102.511 50.5949 102.878 50.1139L101.005 47.3785C100.891 47.1914 100.737 47.0946 100.544 47.0879H101.355C101.636 47.0879 101.87 47.1781 102.057 47.3584C102.237 47.5254 102.434 47.7692 102.648 48.0899L103.49 49.3524L104.802 47.629C104.869 47.5421 104.899 47.4653 104.892 47.3985C104.886 47.3317 104.859 47.2783 104.812 47.2382C104.765 47.1914 104.705 47.1547 104.632 47.128C104.558 47.1013 104.485 47.0879 104.411 47.0879H106.105C106.011 47.0946 105.924 47.128 105.844 47.1881C105.764 47.2482 105.681 47.315 105.594 47.3885C105.574 47.4085 105.53 47.4586 105.463 47.5388C105.403 47.6123 105.327 47.7058 105.233 47.8193C105.146 47.9329 105.049 48.0632 104.942 48.2101C104.836 48.3504 104.729 48.4907 104.622 48.631C104.368 48.9716 104.087 49.3491 103.78 49.7632L105.173 51.8073C105.193 51.8407 105.213 51.8741 105.233 51.9075C105.26 51.9342 105.283 51.9643 105.303 51.9977L105.884 52.8494C105.985 52.983 106.118 53.0531 106.285 53.0598H105.474C105.327 53.0598 105.19 53.0264 105.063 52.9596C104.936 52.8995 104.819 52.8193 104.712 52.7191C104.612 52.6256 104.515 52.5221 104.421 52.4085C104.335 52.2883 104.254 52.1714 104.181 52.0578L103.169 50.5348L101.626 52.5287C101.566 52.6156 101.536 52.6891 101.536 52.7492C101.542 52.816 101.569 52.8728 101.616 52.9195C101.663 52.9663 101.723 52.9997 101.796 53.0197C101.87 53.0464 101.943 53.0598 102.017 53.0598H100.303Z" fill="#15594D"/>
<path d="M141.688 7.98417C141.122 7.98417 140.598 7.88239 140.116 7.67883C139.633 7.47527 139.211 7.19254 138.849 6.83065C138.487 6.46122 138.205 6.03525 138.001 5.55273C137.805 5.07021 137.707 4.55 137.707 3.99209C137.707 3.43417 137.809 2.91396 138.012 2.43144C138.216 1.94892 138.499 1.52672 138.861 1.16483C139.222 0.795401 139.645 0.508906 140.127 0.305343C140.617 0.101781 141.145 0 141.71 0C142.276 0 142.8 0.101781 143.282 0.305343C143.772 0.501366 144.195 0.780322 144.549 1.14221C144.911 1.5041 145.19 1.9263 145.386 2.40882C145.589 2.8838 145.691 3.40402 145.691 3.96947C145.691 4.53492 145.589 5.06267 145.386 5.55273C145.182 6.03525 144.896 6.46122 144.526 6.83065C144.164 7.19254 143.742 7.47527 143.26 7.67883C142.777 7.88239 142.253 7.98417 141.688 7.98417ZM143.034 6.25389L141.903 4.5123H142.683L143.814 6.25389H143.034ZM141.688 7.47527C142.178 7.47527 142.634 7.38479 143.056 7.20385C143.478 7.02291 143.848 6.77411 144.164 6.45745C144.481 6.1408 144.726 5.77137 144.9 5.34917C145.073 4.91943 145.16 4.45953 145.16 3.96947C145.16 3.47941 145.073 3.02328 144.9 2.60108C144.726 2.17887 144.485 1.81321 144.176 1.5041C143.867 1.19499 143.501 0.953728 143.079 0.780323C142.664 0.599378 142.208 0.508906 141.71 0.508906C141.213 0.508906 140.749 0.599378 140.319 0.780323C139.897 0.953728 139.532 1.20253 139.222 1.52672C138.913 1.84337 138.672 2.2128 138.499 2.635C138.325 3.04967 138.239 3.50203 138.239 3.99209C138.239 4.48214 138.325 4.93827 138.499 5.36048C138.672 5.78268 138.913 6.15211 139.222 6.46876C139.532 6.78542 139.897 7.03421 140.319 7.21516C140.742 7.38856 141.198 7.47527 141.688 7.47527ZM140.093 6.25389V1.73028H141.903C142.476 1.73028 142.924 1.86976 143.248 2.14872C143.573 2.42767 143.735 2.80087 143.735 3.26831C143.735 3.75083 143.573 4.12779 143.248 4.39921C142.924 4.67063 142.476 4.80634 141.903 4.80634H140.862V6.25389H140.093ZM140.851 4.17303H141.846C142.208 4.17303 142.487 4.09387 142.683 3.93554C142.887 3.77721 142.988 3.5548 142.988 3.26831C142.988 2.98181 142.887 2.76317 142.683 2.61238C142.487 2.45406 142.208 2.3749 141.846 2.3749H140.851V4.17303Z" fill="#15594D"/>
</svg>
