<svg width="34" height="40" viewBox="0 0 34 40" fill="none" xmlns="http://www.w3.org/2000/svg">
<path d="M31.8109 21.904L22.3909 20.5133L18.1786 11.8407C18.0744 11.6255 17.8588 11.4893 17.6222 11.4893C17.3855 11.4893 17.1699 11.6255 17.0657 11.8407L12.8538 20.5133L3.43385 21.904C3.2005 21.9384 3.00604 22.1049 2.93281 22.3332C2.85958 22.5615 2.92082 22.8125 3.09003 22.9798L9.90553 29.7302L8.29692 39.2625C8.25679 39.4992 8.35278 39.7384 8.54392 39.8797C8.73548 40.0205 8.98869 40.039 9.19763 39.9276L17.6217 35.4267L26.0471 39.9276C26.1381 39.9759 26.237 39.9999 26.3359 39.9999C26.4646 39.9999 26.5924 39.9591 26.7008 39.8797C26.8919 39.7384 26.9875 39.4992 26.9478 39.2625L25.3375 29.7302L32.1539 22.9798C32.3231 22.8125 32.3839 22.5615 32.3111 22.3332C32.2387 22.1049 32.0442 21.9384 31.8109 21.904ZM24.2386 29.0584C24.0922 29.2035 24.0256 29.412 24.0599 29.6167L25.5125 38.2161L17.9114 34.1558C17.7301 34.0596 17.5146 34.0596 17.3338 34.1558L9.73383 38.2161L11.1848 29.6167C11.2191 29.412 11.1525 29.2035 11.0061 29.0584L4.85793 22.9689L13.3561 21.7144C13.558 21.6845 13.733 21.5554 13.8232 21.3696L17.623 13.5459L21.4232 21.3696C21.5134 21.5554 21.6884 21.6845 21.8903 21.7144L30.3884 22.9689L24.2386 29.0584Z" fill="white"/>
<path d="M6.86638 14.8935C7.09065 14.8935 7.30578 14.7621 7.40718 14.5384C7.54676 14.2306 7.41752 13.864 7.11889 13.7199L0.849145 10.6958C0.551306 10.5525 0.195807 10.6855 0.0562321 10.9934C-0.0833429 11.3013 0.045893 11.6679 0.344528 11.8119L6.61427 14.836C6.69579 14.875 6.78168 14.8935 6.86638 14.8935Z" fill="white"/>
<path d="M33.9432 10.9934C33.8033 10.6855 33.4478 10.5525 33.1503 10.6958L26.8805 13.7199C26.5819 13.8644 26.453 14.2306 26.5922 14.5384C26.6936 14.7621 26.9087 14.8935 27.133 14.8935C27.2177 14.8935 27.3036 14.875 27.3851 14.8356L33.6549 11.8115C33.954 11.6679 34.0828 11.3013 33.9432 10.9934Z" fill="white"/>
<path d="M17.6219 8.51064C17.9653 8.51064 18.2439 8.22964 18.2439 7.88341V0.627227C18.2439 0.28058 17.9653 0 17.6219 0C17.2786 0 17 0.28058 17 0.627227V7.88341C17 8.22964 17.2786 8.51064 17.6219 8.51064Z" fill="white"/>
</svg>
