<svg width="16" height="17" viewBox="0 0 16 17" fill="none" xmlns="http://www.w3.org/2000/svg">
<path d="M7.92424 0.583252C10.0752 0.583252 10.3436 0.591169 11.1875 0.630752C12.0306 0.670335 12.6046 0.802544 13.1097 0.998877C13.6322 1.19996 14.0723 1.47229 14.5125 1.91167C14.915 2.30742 15.2265 2.78613 15.4253 3.3145C15.6208 3.81879 15.7538 4.39354 15.7934 5.23667C15.8306 6.08059 15.8409 6.34896 15.8409 8.49992C15.8409 10.6509 15.833 10.9193 15.7934 11.7632C15.7538 12.6063 15.6208 13.1803 15.4253 13.6853C15.2271 14.214 14.9155 14.6928 14.5125 15.0882C14.1166 15.4906 13.6379 15.8021 13.1097 16.001C12.6054 16.1965 12.0306 16.3295 11.1875 16.3691C10.3436 16.4063 10.0752 16.4166 7.92424 16.4166C5.77328 16.4166 5.5049 16.4087 4.66099 16.3691C3.81786 16.3295 3.2439 16.1965 2.73882 16.001C2.21024 15.8026 1.73144 15.4911 1.33599 15.0882C0.933349 14.6925 0.621847 14.2137 0.423193 13.6853C0.22686 13.181 0.0946517 12.6063 0.0550683 11.7632C0.01786 10.9193 0.00756836 10.6509 0.00756836 8.49992C0.00756836 6.34896 0.015485 6.08059 0.0550683 5.23667C0.0946517 4.39275 0.22686 3.81959 0.423193 3.3145C0.621297 2.78581 0.932871 2.30696 1.33599 1.91167C1.73156 1.50889 2.21032 1.19737 2.73882 0.998877C3.2439 0.802544 3.81707 0.670335 4.66099 0.630752C5.5049 0.593544 5.77328 0.583252 7.92424 0.583252ZM7.92424 4.54159C6.87442 4.54159 5.8676 4.95862 5.12527 5.70095C4.38294 6.44329 3.9659 7.4501 3.9659 8.49992C3.9659 9.54974 4.38294 10.5566 5.12527 11.2989C5.8676 12.0412 6.87442 12.4583 7.92424 12.4583C8.97405 12.4583 9.98087 12.0412 10.7232 11.2989C11.4655 10.5566 11.8826 9.54974 11.8826 8.49992C11.8826 7.4501 11.4655 6.44329 10.7232 5.70095C9.98087 4.95862 8.97405 4.54159 7.92424 4.54159ZM13.0701 4.34367C13.0701 4.08122 12.9658 3.82951 12.7802 3.64393C12.5946 3.45834 12.3429 3.35409 12.0805 3.35409C11.818 3.35409 11.5663 3.45834 11.3807 3.64393C11.1952 3.82951 11.0909 4.08122 11.0909 4.34367C11.0909 4.60612 11.1952 4.85783 11.3807 5.04341C11.5663 5.22899 11.818 5.33325 12.0805 5.33325C12.3429 5.33325 12.5946 5.22899 12.7802 5.04341C12.9658 4.85783 13.0701 4.60612 13.0701 4.34367ZM7.92424 6.12492C8.55412 6.12492 9.15822 6.37514 9.60361 6.82054C10.049 7.26594 10.2992 7.87003 10.2992 8.49992C10.2992 9.12981 10.049 9.7339 9.60361 10.1793C9.15822 10.6247 8.55412 10.8749 7.92424 10.8749C7.29435 10.8749 6.69026 10.6247 6.24486 10.1793C5.79946 9.7339 5.54924 9.12981 5.54924 8.49992C5.54924 7.87003 5.79946 7.26594 6.24486 6.82054C6.69026 6.37514 7.29435 6.12492 7.92424 6.12492Z" fill="black" fill-opacity="0.5"/>
</svg>
