<svg width="148" height="58" viewBox="0 0 148 58" fill="none" xmlns="http://www.w3.org/2000/svg">
<path d="M2.97102 34.5329V5.42626C2.98358 5.00457 2.91388 4.58464 2.7662 4.19233C2.61853 3.80001 2.39601 3.44363 2.11235 3.14512C1.55272 2.55006 0.795781 2.20563 0 2.18392H2.96888L3.36816 2.24484C5.4619 2.52462 7.21289 3.56479 8.62112 5.36534L25.6895 27.6286V5.18032C25.6491 4.36646 25.3234 3.59715 24.7751 3.02088C24.2269 2.4446 23.4949 2.10222 22.7206 2.05981H31.3997C30.5986 2.08305 29.8389 2.43927 29.2873 3.05035C29.0079 3.34696 28.7879 3.69948 28.6404 4.08704C28.493 4.47461 28.4209 4.88934 28.4287 5.30668L28.3814 38.3687H28.0508C27.6801 38.3812 27.3124 38.2941 26.9826 38.1156C26.6528 37.9372 26.3718 37.6733 26.166 37.3488L5.71235 10.6429V34.6503C5.72639 35.4733 6.0434 36.2586 6.59679 36.8412C7.15567 37.424 7.8957 37.7757 8.68123 37.8317H0.00214551C0.800351 37.7693 1.55036 37.4064 2.11449 36.8096C2.39744 36.5116 2.61938 36.1558 2.76669 35.7643C2.91399 35.3728 2.98352 34.9538 2.97102 34.5329Z" fill="#15594D"/>
<path d="M75.7825 35.1896V4.64106C75.636 3.93366 75.2711 3.29701 74.7446 2.83018C74.2182 2.36334 73.5597 2.0925 72.8716 2.05981H93.0956C95.0376 2.05981 96.3893 2.69986 97.1507 3.97996C97.3189 4.2893 97.412 4.63745 97.4217 4.99361C97.4314 5.34976 97.3575 5.70296 97.2065 6.02194C97.0478 6.36964 96.8063 6.66829 96.5054 6.8889C96.2045 7.10951 95.8544 7.24458 95.4891 7.28097H95.3196L95.2036 7.10047C94.2534 5.66093 92.5403 4.94116 90.0645 4.94116H81.0483V17.9647H89.5294C91.1208 17.9647 92.4108 19.2547 92.4108 20.8461H81.0376V34.533C81.0196 35.3831 81.3212 36.2064 81.877 36.8244C82.4328 37.4423 83.1979 37.8051 84.0065 37.834H72.8716C73.5704 37.8027 74.2369 37.5163 74.7564 37.024C75.2772 36.5443 75.637 35.9011 75.7825 35.1896Z" fill="#15594D"/>
<path d="M113.094 2.05975C112.292 2.08263 111.532 2.43886 110.98 3.05028C110.7 3.3469 110.48 3.69942 110.333 4.08698C110.185 4.47455 110.113 4.88928 110.121 5.30662V34.533C110.103 35.3835 110.405 36.2071 110.961 36.8252C111.517 37.4432 112.283 37.8057 113.092 37.834H109.722C108.465 37.834 107.495 37.6535 106.811 37.2925C106.095 36.8154 105.552 36.1006 105.267 35.2618C105.138 34.6878 105.043 34.1061 104.982 33.5199C104.9 32.703 104.862 31.8819 104.868 31.0605V5.29985C104.876 4.88251 104.804 4.46778 104.656 4.08021C104.509 3.69265 104.289 3.34013 104.009 3.04351C103.458 2.43243 102.698 2.07621 101.897 2.05298L113.094 2.05975Z" fill="#15594D"/>
<path d="M118.571 33.0915V32.6718C118.579 32.0859 118.805 31.5265 119.199 31.1122C119.593 30.6978 120.125 30.4609 120.683 30.4516H120.968L121.024 30.6908C121.786 32.9711 122.909 34.5506 124.395 35.429C125.88 36.3075 127.746 36.7475 129.991 36.749C130.729 36.7465 131.466 36.6663 132.189 36.5098C132.891 36.3638 133.566 36.1002 134.188 35.7291C134.773 35.3736 135.271 34.88 135.643 34.2873C136.04 33.6239 136.239 32.8505 136.214 32.0671C136.227 31.2512 136.071 30.4421 135.757 29.6957C135.457 29.0034 135.042 28.3735 134.529 27.8365C133.996 27.2789 133.413 26.7765 132.788 26.3361C132.14 25.8758 131.496 25.4456 130.856 25.0454L124.631 21.2097C123.764 20.6816 122.934 20.0897 122.147 19.4385C121.425 18.8403 120.782 18.1437 120.234 17.3672C119.699 16.6018 119.284 15.7508 119.006 14.8469C118.708 13.8369 118.563 12.7838 118.577 11.7264C118.554 10.3206 118.827 8.92689 119.376 7.64469C119.89 6.46948 120.64 5.42501 121.574 4.58286C122.531 3.7285 123.636 3.0765 124.828 2.66273C126.086 2.21941 127.404 1.99607 128.731 2.00163C129.996 1.98429 131.259 2.10528 132.5 2.36264C133.43 2.55803 134.339 2.84976 135.214 3.23358C135.866 3.51956 136.48 3.89268 137.041 4.34369C137.449 4.68162 137.839 5.04239 138.211 5.42447C138.699 5.96352 139.131 6.55663 139.499 7.19342C139.819 7.76641 139.987 8.41958 139.984 9.08422C139.967 9.60391 139.763 10.0974 139.413 10.4651C139.063 10.8328 138.593 11.0473 138.099 11.0653H137.47L137.356 10.8261C136.595 8.74577 135.509 7.22501 134.098 6.26382C132.686 5.30263 130.898 4.82278 128.731 4.82429C128.036 4.82625 127.348 4.96874 126.704 5.24396C126.056 5.51215 125.457 5.8978 124.936 6.3834C124.419 6.86667 123.992 7.44662 123.678 8.0937C123.354 8.75278 123.188 9.48441 123.192 10.2259C123.163 11.4669 123.594 12.6713 124.392 13.5856C125.23 14.4671 126.638 15.5478 128.617 16.8279L134.842 20.7291C135.696 21.2349 136.525 21.7853 137.326 22.3785C138.084 22.9387 138.774 23.5941 139.381 24.3302C139.968 25.0455 140.44 25.8563 140.78 26.7309C141.141 27.7071 141.316 28.7481 141.295 29.795C141.295 31.4752 141.009 32.926 140.437 34.1474C139.887 35.3404 139.087 36.3866 138.097 37.207C137.073 38.0476 135.898 38.6616 134.643 39.0121C133.275 39.3971 131.864 39.5861 130.448 39.5739C129.313 39.5581 128.179 39.4783 127.052 39.3347C125.719 39.1765 124.409 38.8523 123.149 38.369C121.965 37.9323 120.872 37.2597 119.929 36.388C119.024 35.5516 118.571 34.4528 118.571 33.0915Z" fill="#15594D"/>
<path d="M34.2612 37.9172C34.4888 37.854 34.6433 37.8247 34.7893 37.7705C35.2596 37.6125 35.6916 37.3491 36.0556 36.9985C36.4195 36.6479 36.7067 36.2185 36.8974 35.7398C39.9371 28.1556 42.9754 20.5714 46.0122 12.9872C47.4011 9.51695 48.8029 6.049 50.1682 2.57202C50.3121 2.20875 50.4881 2.08691 50.8573 2.13655C51.3511 2.17844 51.8229 2.36908 52.2162 2.68562C52.6095 3.00217 52.9076 3.43119 53.0749 3.92129C55.2029 9.41616 57.3339 14.9065 59.4677 20.3924C60.9704 24.2778 62.4731 28.1744 64.0251 32.0372C64.4996 33.2128 65.1908 34.2935 65.7661 35.4217C66.2487 36.3799 66.8932 37.2377 67.6681 37.9533C67.8827 38.1405 68.0974 38.2962 68.355 38.4948C68.2847 38.5145 68.2129 38.5281 68.1403 38.5354C63.7976 38.5354 59.5321 37.9871 55.4276 36.4145C52.4695 35.2863 49.7861 33.6595 47.5321 31.322C46.0157 29.7579 44.8185 27.8854 44.0137 25.8188C43.9965 25.7759 43.9772 25.7331 43.945 25.6586C43.8956 25.7489 43.8505 25.8143 43.8205 25.8842C42.4824 29.2206 41.1457 32.5569 39.8104 35.8933C39.6172 36.3784 39.6709 36.6288 40.0251 36.9921C40.4904 37.4462 41.0612 37.7637 41.6802 37.9127L34.2612 37.9172ZM49.8505 10.8414C49.784 10.9768 49.7539 11.0242 49.7325 11.0783C48.4444 14.3364 47.1528 17.5961 45.8577 20.8572C45.8 21.0247 45.7838 21.2048 45.8104 21.3807C46.2935 25.1013 47.9958 28.0887 50.7629 30.4262C53.1071 32.4073 55.8076 33.6031 58.6885 34.4086C58.9031 34.4673 59.1178 34.5169 59.3174 34.5643C56.048 26.7146 53.0341 18.7791 49.8505 10.8414Z" fill="#15594D"/>
<path d="M38.7998 51.022C38.6485 51.0292 38.5213 51.0906 38.4181 51.2061C38.315 51.3145 38.2634 51.4481 38.2634 51.607V56.8828C38.2634 57.0489 38.315 57.1862 38.4181 57.2945C38.5213 57.4101 38.6485 57.4714 38.7998 57.4787H38.1912C37.9642 57.4787 37.7888 57.4462 37.665 57.3812C37.5412 57.3017 37.4484 57.1789 37.3865 57.0128C37.3659 56.9262 37.3487 56.8214 37.3349 56.6987C37.3212 56.5759 37.3143 56.4278 37.3143 56.2545V51.607C37.3143 51.4481 37.2627 51.3145 37.1595 51.2061C37.0564 51.0906 36.9291 51.0292 36.7778 51.022H38.7998Z" fill="#15594D"/>
<path d="M43.407 56.8828V51.6286C43.407 51.4625 43.3554 51.3253 43.2522 51.217C43.1491 51.1086 43.0218 51.0509 42.8705 51.0436H43.407L43.4792 51.0545C43.8575 51.105 44.1738 51.2928 44.4283 51.6178L47.5129 55.637V51.5853C47.506 51.4336 47.451 51.3036 47.3478 51.1953C47.2447 51.087 47.1209 51.0292 46.9764 51.022H48.5445C48.3932 51.0292 48.266 51.0906 48.1628 51.2061C48.0596 51.3145 48.0081 51.4481 48.0081 51.607L47.9977 57.5762H47.9359C47.7914 57.5762 47.6779 57.5148 47.5954 57.392L43.9022 52.5711V56.9045C43.909 57.0634 43.9606 57.1934 44.0569 57.2945C44.1601 57.4028 44.2873 57.4642 44.4386 57.4787H42.8705C43.0218 57.4642 43.1491 57.4028 43.2522 57.2945C43.3554 57.1862 43.407 57.0489 43.407 56.8828Z" fill="#15594D"/>
<path d="M52.6203 51.3686C52.7578 51.1375 52.9985 51.022 53.3424 51.022H57.6443V51.542H55.6017V56.9045C55.6017 57.0562 55.6533 57.1862 55.7564 57.2945C55.8596 57.4101 55.9868 57.4714 56.1382 57.4787H54.1161C54.2606 57.4714 54.3809 57.4137 54.4772 57.3053C54.5804 57.2042 54.6388 57.0778 54.6526 56.9262V51.542H53.8892C53.4421 51.542 53.1361 51.672 52.971 51.932L52.9504 51.9645H52.9091C52.7785 51.95 52.6787 51.8742 52.61 51.737C52.5481 51.6142 52.5515 51.4914 52.6203 51.3686Z" fill="#15594D"/>
<path d="M61.6144 51.022H65.2767C65.6344 51.022 65.8751 51.1375 65.9989 51.3686C66.0333 51.4264 66.0505 51.4878 66.0505 51.5528C66.0574 51.6178 66.047 51.6792 66.0195 51.737C65.9576 51.867 65.8545 51.9428 65.71 51.9645H65.6688L65.6481 51.932C65.4831 51.672 65.177 51.542 64.73 51.542H63.1V53.8928H65.5553V54.4128H63.1V56.9587H64.6268C65.0463 56.9587 65.3627 56.8828 65.5759 56.7312C65.6172 56.7095 65.6585 56.677 65.6997 56.6337L65.7204 56.6228H65.741C65.8304 56.6228 65.9026 56.6734 65.9576 56.7745C66.0264 56.9045 66.023 57.0273 65.9473 57.1428C65.8029 57.3667 65.6069 57.4787 65.3593 57.4787H61.6144C61.7589 57.4714 61.8827 57.4137 61.9858 57.3053C62.089 57.197 62.144 57.0634 62.1509 56.9045V51.5528C62.1371 51.4084 62.0787 51.2856 61.9755 51.1845C61.8724 51.0834 61.752 51.0292 61.6144 51.022Z" fill="#15594D"/>
<path d="M70.6615 56.8937V51.5745C70.6546 51.43 70.5996 51.3036 70.4964 51.1953C70.3933 51.087 70.2695 51.0292 70.125 51.022H72.2708C72.7247 51.0509 73.103 51.1303 73.4056 51.2603C73.7082 51.3831 73.949 51.5311 74.1278 51.7045C74.3066 51.8778 74.4304 52.062 74.4992 52.257C74.5748 52.452 74.6126 52.6361 74.6126 52.8095C74.6126 53.6689 74.1381 54.2287 73.189 54.4887L74.8809 57.0128L75.0459 57.2295C75.1009 57.3089 75.1628 57.3739 75.2316 57.4245C75.3073 57.4751 75.3932 57.5039 75.4895 57.5112H74.8809C74.5714 57.5039 74.2963 57.3992 74.0556 57.197C74.0143 57.1681 73.9558 57.1031 73.8802 57.002C73.8045 56.9081 73.7151 56.7962 73.612 56.6662C73.5157 56.5362 73.4125 56.3953 73.3025 56.2437C73.1924 56.0848 73.0824 55.9295 72.9723 55.7778C72.7179 55.4095 72.4428 55.0014 72.147 54.5537H71.6106V56.8828C71.6106 57.0489 71.6622 57.1862 71.7653 57.2945C71.8685 57.4028 71.9957 57.4642 72.147 57.4787H70.125C70.2763 57.4642 70.4036 57.4028 70.5067 57.2945C70.6099 57.1862 70.6615 57.0526 70.6615 56.8937ZM71.6106 51.5745V54.0012C71.8444 54.0589 72.0507 54.0878 72.2296 54.0878C72.4221 54.0878 72.6181 54.0409 72.8176 53.947C73.0514 53.8531 73.2371 53.705 73.3747 53.5028C73.5122 53.3006 73.581 53.0695 73.581 52.8095C73.581 52.5423 73.5122 52.3075 73.3747 52.1053C73.244 51.8959 73.0583 51.7406 72.8176 51.6395C72.6044 51.5384 72.4084 51.4878 72.2296 51.4878C72.0507 51.4878 71.8444 51.5167 71.6106 51.5745Z" fill="#15594D"/>
<path d="M84.9101 57.4787C85.0614 57.4714 85.1852 57.4137 85.2815 57.3053C85.3847 57.197 85.4397 57.0634 85.4466 56.9045V51.5961C85.4397 51.4373 85.3847 51.3073 85.2815 51.2061C85.1852 51.0978 85.0614 51.0364 84.9101 51.022H85.5188C85.732 51.022 85.8971 51.0509 86.014 51.1086C86.1309 51.1664 86.2169 51.2495 86.2719 51.3578C86.3338 51.4661 86.3682 51.5961 86.375 51.7478C86.3888 51.8995 86.3957 52.0656 86.3957 52.2461V56.9587H88.2629C88.3661 56.9587 88.4727 56.9551 88.5828 56.9478C88.6928 56.9406 88.796 56.9262 88.8922 56.9045C88.9954 56.8828 89.0848 56.8503 89.1605 56.807C89.243 56.7564 89.3049 56.6951 89.3462 56.6228C89.4906 56.7312 89.5697 56.8395 89.5834 56.9478C89.5972 57.0489 89.5731 57.1392 89.5112 57.2187C89.4562 57.3053 89.3771 57.3703 89.2739 57.4137C89.1777 57.4642 89.0814 57.4859 88.9851 57.4787H84.9101Z" fill="#15594D"/>
<path d="M93.4102 51.022H94.0188C94.2458 51.022 94.4212 51.0545 94.545 51.1195C94.6275 51.17 94.6928 51.2423 94.741 51.3361C94.7891 51.4228 94.8235 51.5167 94.8441 51.6178C94.8716 51.7189 94.8854 51.8236 94.8854 51.932C94.8923 52.0403 94.8957 52.1414 94.8957 52.2353V54.9653C94.8957 55.2542 94.9163 55.5251 94.9576 55.7778C95.0058 56.0306 95.0848 56.2545 95.1949 56.4495C95.3118 56.6373 95.47 56.7853 95.6694 56.8937C95.8689 57.002 96.1268 57.0562 96.4432 57.0562C96.8283 57.0562 97.1378 56.9984 97.3716 56.8828C97.6055 56.7601 97.7843 56.5939 97.9081 56.3845C98.0388 56.1678 98.1247 55.9151 98.166 55.6262C98.2073 55.3373 98.2279 55.0231 98.2279 54.6837V51.5745C98.2141 51.4228 98.1557 51.2964 98.0525 51.1953C97.9562 51.087 97.8359 51.0292 97.6914 51.022H99.2492C99.1117 51.0292 98.9913 51.0834 98.8881 51.1845C98.7919 51.2856 98.7368 51.4084 98.7231 51.5528V54.6837C98.7231 55.1675 98.6852 55.5901 98.6096 55.9512C98.5408 56.3123 98.4136 56.6156 98.2279 56.8612C98.0491 57.0995 97.8049 57.2764 97.4954 57.392C97.1859 57.5148 96.7974 57.5762 96.3297 57.5762C95.8483 57.5762 95.4528 57.5076 95.1433 57.3703C94.8407 57.2331 94.6 57.0381 94.4212 56.7853C94.2423 56.5326 94.1185 56.2292 94.0498 55.8753C93.981 55.5214 93.9466 55.1242 93.9466 54.6837V51.5853C93.9397 51.4336 93.8847 51.3036 93.7815 51.1953C93.6784 51.087 93.5546 51.0292 93.4102 51.022Z" fill="#15594D"/>
<path d="M103.27 57.4787C103.318 57.4787 103.366 57.4642 103.414 57.4353C103.469 57.4137 103.521 57.3848 103.569 57.3487C103.624 57.3198 103.668 57.2873 103.703 57.2512C103.744 57.2223 103.775 57.197 103.796 57.1753C103.809 57.1681 103.851 57.1176 103.919 57.0237C103.988 56.937 104.074 56.8251 104.177 56.6878C104.281 56.5506 104.394 56.3953 104.518 56.222C104.642 56.0487 104.769 55.8753 104.9 55.702C105.202 55.2831 105.543 54.8137 105.921 54.2937L103.992 51.3361C103.875 51.1339 103.717 51.0292 103.517 51.022H104.353C104.642 51.022 104.882 51.1195 105.075 51.3145C105.261 51.495 105.463 51.7586 105.684 52.1053L106.55 53.4703L107.902 51.607C107.97 51.5131 108.001 51.43 107.994 51.3578C107.988 51.2856 107.96 51.2278 107.912 51.1845C107.864 51.1339 107.802 51.0942 107.726 51.0653C107.651 51.0364 107.575 51.022 107.499 51.022H109.243C109.146 51.0292 109.057 51.0653 108.974 51.1303C108.892 51.1953 108.806 51.2675 108.717 51.347C108.696 51.3686 108.651 51.4228 108.582 51.5095C108.521 51.5889 108.441 51.69 108.345 51.8128C108.256 51.9356 108.156 52.0764 108.046 52.2353C107.936 52.387 107.826 52.5386 107.716 52.6903C107.455 53.0586 107.166 53.4667 106.849 53.9145L108.283 56.1245C108.304 56.1606 108.325 56.1967 108.345 56.2328C108.373 56.2617 108.397 56.2942 108.417 56.3303L109.016 57.2512C109.119 57.3956 109.256 57.4714 109.428 57.4787H108.593C108.441 57.4787 108.3 57.4426 108.17 57.3703C108.039 57.3053 107.919 57.2187 107.809 57.1103C107.706 57.0092 107.606 56.8973 107.51 56.7745C107.42 56.6445 107.338 56.5181 107.262 56.3953L106.22 54.7487L104.631 56.9045C104.569 56.9984 104.538 57.0778 104.538 57.1428C104.545 57.2151 104.573 57.2764 104.621 57.327C104.669 57.3776 104.731 57.4137 104.807 57.4353C104.882 57.4642 104.958 57.4787 105.034 57.4787H103.27Z" fill="#15594D"/>
<path d="M144.49 7C143.994 7 143.535 6.91077 143.112 6.7323C142.689 6.55382 142.319 6.30595 142.001 5.98867C141.684 5.66478 141.436 5.29131 141.258 4.86827C141.086 4.44523 141 3.98914 141 3.5C141 3.01086 141.089 2.55477 141.268 2.13173C141.446 1.70869 141.694 1.33853 142.011 1.02125C142.329 0.697356 142.699 0.446175 143.122 0.267705C143.551 0.089235 144.014 0 144.51 0C145.006 0 145.465 0.089235 145.888 0.267705C146.318 0.439565 146.688 0.684136 146.999 1.00142C147.316 1.3187 147.56 1.68886 147.732 2.1119C147.911 2.52833 148 2.98442 148 3.48017C148 3.97592 147.911 4.43862 147.732 4.86827C147.554 5.29131 147.303 5.66478 146.979 5.98867C146.661 6.30595 146.291 6.55382 145.868 6.7323C145.445 6.91077 144.986 7 144.49 7ZM145.67 5.483L144.678 3.95609H145.363L146.354 5.483H145.67ZM144.49 6.55382C144.92 6.55382 145.32 6.4745 145.69 6.31586C146.06 6.15722 146.384 5.93909 146.661 5.66147C146.939 5.38385 147.154 5.05996 147.306 4.6898C147.458 4.31303 147.534 3.90982 147.534 3.48017C147.534 3.05052 147.458 2.65061 147.306 2.28045C147.154 1.91029 146.942 1.58971 146.671 1.3187C146.4 1.04769 146.08 0.836166 145.71 0.684136C145.346 0.525495 144.946 0.446175 144.51 0.446175C144.074 0.446175 143.667 0.525495 143.29 0.684136C142.92 0.836166 142.6 1.0543 142.329 1.33853C142.058 1.61615 141.846 1.94004 141.694 2.3102C141.542 2.67375 141.466 3.07035 141.466 3.5C141.466 3.92965 141.542 4.32956 141.694 4.69972C141.846 5.06988 142.058 5.39377 142.329 5.67139C142.6 5.94901 142.92 6.16714 143.29 6.32578C143.661 6.47781 144.06 6.55382 144.49 6.55382ZM143.092 5.483V1.517H144.678C145.181 1.517 145.574 1.63928 145.858 1.88385C146.143 2.12842 146.285 2.45562 146.285 2.86544C146.285 3.28848 146.143 3.61898 145.858 3.85694C145.574 4.0949 145.181 4.21388 144.678 4.21388H143.766V5.483H143.092ZM143.756 3.65864H144.629C144.946 3.65864 145.191 3.58924 145.363 3.45042C145.541 3.31161 145.63 3.11662 145.63 2.86544C145.63 2.61426 145.541 2.42257 145.363 2.29037C145.191 2.15156 144.946 2.08215 144.629 2.08215H143.756V3.65864Z" fill="#15594D"/>
</svg>
