<svg width="16" height="15" viewBox="0 0 16 15" fill="none" xmlns="http://www.w3.org/2000/svg">
<path d="M4.22868 8.7473L2.34335 10.6333L4.70001 12.99L13.6567 4.0333L11.3 1.67663L9.88535 3.09063L10.8287 4.0333L9.88535 4.97596L8.94268 4.0333L7.52868 5.44796L8.94268 6.8613L8.00001 7.8053L6.58601 6.3913L5.17135 7.8053L6.11468 8.74796L5.17135 9.6913L4.22868 8.74796V8.7473ZM11.7713 0.261963L15.0713 3.56196C15.1963 3.68698 15.2665 3.85652 15.2665 4.0333C15.2665 4.21007 15.1963 4.37961 15.0713 4.50463L5.17135 14.4046C5.04633 14.5296 4.87679 14.5998 4.70001 14.5998C4.52324 14.5998 4.3537 14.5296 4.22868 14.4046L0.928681 11.1046C0.8037 10.9796 0.73349 10.8101 0.73349 10.6333C0.73349 10.4565 0.8037 10.287 0.928681 10.162L10.8287 0.261963C10.9537 0.136983 11.1232 0.0667725 11.3 0.0667725C11.4768 0.0667725 11.6463 0.136983 11.7713 0.261963Z" fill="#F8F6F4"/>
</svg>
