<svg width="17" height="17" viewBox="0 0 17 17" fill="none" xmlns="http://www.w3.org/2000/svg">
<path d="M8.49992 16.4166C4.12754 16.4166 0.583252 12.8723 0.583252 8.49992C0.583252 4.12754 4.12754 0.583252 8.49992 0.583252C12.8723 0.583252 16.4166 4.12754 16.4166 8.49992C16.4166 12.8723 12.8723 16.4166 8.49992 16.4166ZM6.03784 9.42617L6.04813 9.42063L6.73688 11.6927C6.82554 11.9389 6.94746 11.9833 7.0955 11.9627C7.24434 11.9429 7.32271 11.8629 7.42009 11.7695L8.36059 10.8607L10.3793 12.3553C10.7483 12.5588 11.0135 12.4535 11.1053 12.0133L12.4171 5.82092C12.562 5.24459 12.3086 5.01342 11.8613 5.19709L4.15604 8.17375C3.63038 8.38434 3.63354 8.67884 4.06104 8.80946L6.03784 9.42696V9.42617Z" fill="black" fill-opacity="0.5"/>
</svg>
